<svg width="37" height="36" xmlns="http://www.w3.org/2000/svg" xmlns:xlink="http://www.w3.org/1999/xlink" xml:space="preserve" overflow="hidden"><g transform="translate(-9 -542)"><g><g><g><g><path d="M22.9432 18.2292C21.7109 17.1792 20.1104 16.687 18.5938 16.213L18.5938 7.3974C20.0663 7.53732 21.4424 8.19182 22.4802 9.24583L24.2302 7.56875C22.7326 6.04527 20.7257 5.1275 18.5938 4.99115L18.5938 1.82292 16.4062 1.82292 16.4062 5.12969C15.6572 5.27548 14.9345 5.53361 14.2625 5.89531 11.499 7.40104 10.088 10.9375 11.2219 13.9161 12.1005 16.213 14.2188 17.2375 16.4062 18.0068L16.4062 27.5516C14.7109 27.3438 13.3036 26.3703 12.137 25.1562L10.387 26.8297C11.2202 27.7752 12.2138 28.5663 13.3219 29.1667 14.2904 29.6274 15.3365 29.9031 16.4062 29.9797L16.4062 33.1771 18.5938 33.1771 18.5938 29.8958C21.1021 29.4766 23.4062 27.9344 24.3979 25.5208 25.3896 23.1073 25.0286 20.012 22.9432 18.2292ZM14.5833 14.4849C12.5781 12.7932 13.0667 9.51927 15.1922 8.16302 15.5689 7.92141 15.9775 7.73365 16.4062 7.60521L16.4062 15.513C15.7462 15.2729 15.1303 14.9256 14.5833 14.4849ZM21.1786 26.0859C20.4671 26.7816 19.5693 27.2564 18.5938 27.4531L18.5938 18.7432C20.0521 19.2427 21.7255 19.8771 22.3198 21.4302 22.9141 22.9833 22.3161 24.9266 21.1786 26.0859Z" fill="#000000" fill-rule="nonzero" fill-opacity="1" transform="matrix(1.02857 0 0 1 10 543)"/></g></g></g></g></g></svg>